<?xml version="1.0" encoding="utf-8"?>
<!-- Generator: Adobe Illustrator 22.1.0, SVG Export Plug-In . SVG Version: 6.00 Build 0)  -->
<svg version="1.1" id="Layer_1" xmlns="http://www.w3.org/2000/svg" xmlns:xlink="http://www.w3.org/1999/xlink" x="0px" y="0px"
	 viewBox="0 0 221 140.1" style="enable-background:new 0 0 221 140.1;" xml:space="preserve">
<style type="text/css">
	.st0{fill:url(#SVGID_1_);}
	.st1{fill:url(#SVGID_2_);}
	.st2{fill:url(#SVGID_3_);}
</style>
<g id="f8dade03-0ada-4d99-9a05-78e310788420" transform="matrix(2.4406687618480287,0,0,2.4406687618480287,28.136472279643485,27.251238263696116)">
	
		<linearGradient id="SVGID_1_" gradientUnits="userSpaceOnUse" x1="-243.8005" y1="174.8626" x2="-242.8005" y2="174.8626" gradientTransform="matrix(142.5378 40.2274 66.4665 -86.2679 23136.2773 24908.2969)">
		<stop  offset="0" style="stop-color:#08C7D6"/>
		<stop  offset="1" style="stop-color:#02023E"/>
	</linearGradient>
	<path class="st0" d="M78.6,7.2H30.4c-0.2,0-0.3,0.3-0.3,0.4c-0.3,3.8-5.6,3.7-7,3.6c-0.2,0-0.1,0.2-0.1,0.4v12.9
		c20,0,0.8,16.5-8.1,20.8c-0.4,0.2-0.5,0.9,0,0.9h20.8c0.1,0,0.1,0,0.1-0.1c0.1-1.1,1.4-9.1,7.8-9.1s8,8,8.1,9.1
		c0,0.1,0.1,0.1,0.1,0.1h18.3c0.5,0,0.6-0.6,0.2-0.8c-4.3-2.6-16.5-10.3-14.6-19c2-9.2,14.3-11.7,17.4-12.2c0.4-0.1,0.9-0.4,0.9-0.9
		v-2.1h3.9c0.6,0,1.1-0.4,1.1-1V7.8C79,7.6,78.8,7.2,78.6,7.2z"/>
	
		<linearGradient id="SVGID_2_" gradientUnits="userSpaceOnUse" x1="-241.2762" y1="173.0254" x2="-240.2762" y2="173.0254" gradientTransform="matrix(68.8799 10.6242 32.1192 -22.7836 11049.5537 6520.4268)">
		<stop  offset="0" style="stop-color:#08C7D6"/>
		<stop  offset="1" style="stop-color:#02023E"/>
	</linearGradient>
	<path class="st1" d="M20,14.2h-30.9c-0.2,0-0.3,0.2-0.2,0.4c1.7,2,8.5,9.9,31.1,9.9V14.2z"/>
	<g>
		
			<linearGradient id="SVGID_3_" gradientUnits="userSpaceOnUse" x1="-242.4949" y1="173.7929" x2="-241.4949" y2="173.7929" gradientTransform="matrix(92.5947 16.2084 43.1776 -34.759 14973.0469 9964.9365)">
			<stop  offset="0" style="stop-color:#08C7D6"/>
			<stop  offset="1" style="stop-color:#02023E"/>
		</linearGradient>
		<path class="st2" d="M55.5,4.5c-0.2,0-0.5-0.1-0.7-0.3c-0.4-0.4-0.3-1,0-1.3l9.8-9.2c0.4-0.4,1-0.3,1.3,0c0.4,0.4,0.3,1,0,1.3
			l-9.8,9.2C55.9,4.4,55.7,4.5,55.5,4.5z M64.3,4c-0.4,0-0.7-0.2-0.9-0.6c-0.2-0.5,0.1-1,0.5-1.2L69.8,0c0.5-0.2,1,0.1,1.2,0.5
			c0.2,0.5-0.1,1-0.5,1.2L64.6,4H64.3L64.3,4z M42.6,1.6c-0.3,0-0.5-0.1-0.7-0.3l-9.4-11c-0.3-0.4-0.3-1,0.1-1.3
			c0.4-0.3,1-0.3,1.3,0.1l9.4,11c0.3,0.4,0.3,1-0.1,1.3C43.1,1.5,42.8,1.6,42.6,1.6z M49.9-0.1h-0.3c-0.5-0.2-0.7-0.7-0.6-1.2l2-5.9
			c0.2-0.5,0.7-0.7,1.2-0.6c0.5,0.2,0.7,0.7,0.6,1.2l-2,5.9C50.7-0.3,50.3-0.1,49.9-0.1L49.9-0.1z M35.6,3.9c-0.1,0-0.3,0-0.4-0.1
			l-5.5-2.9c-0.5-0.2-0.6-0.8-0.4-1.3c0.2-0.5,0.8-0.6,1.3-0.4l5.4,3c0.5,0.2,0.6,0.8,0.4,1.3C36.2,3.7,35.9,3.9,35.6,3.9z
			 M45.7-3.9c-0.4,0-0.8-0.3-0.9-0.7l-1.5-5.1c-0.1-0.5,0.1-1,0.6-1.2c0.5-0.1,1,0.1,1.2,0.6l1.5,5.1c0.1,0.5-0.1,1-0.6,1.2
			C45.9-3.9,45.8-3.9,45.7-3.9z"/>
	</g>
</g>
</svg>
