<?xml version="1.0" encoding="utf-8"?>
<!-- Generator: Adobe Illustrator 22.1.0, SVG Export Plug-In . SVG Version: 6.00 Build 0)  -->
<svg version="1.1" id="Layer_1" xmlns="http://www.w3.org/2000/svg" xmlns:xlink="http://www.w3.org/1999/xlink" x="0px" y="0px"
	 viewBox="0 0 314.7 73.3" style="enable-background:new 0 0 314.7 73.3;" xml:space="preserve">
<style type="text/css">
	.st0{fill:#FFFFFF;}
	.st1{fill:#FFE400;}
	.st2{fill:#14A76C;}
	.st3{fill:#FF652F;}
</style>
<g id="_x34_85ab5b2-4604-479b-99d7-b8e213c7ab50" transform="matrix(5.04936126060681,0,0,5.04936126060681,120.031710526962,86.65576500817495)">
	<path class="st0" d="M-6.7-5.2V-14h1.4v7.6h3.2v1.2C-2.1-5.2-6.7-5.2-6.7-5.2z M1.9-12.4L1.9-12.4c0.6,0,1.2,0.1,1.5,0.2l0,0l0,0
		c0.4,0.1,0.7,0.3,0.9,0.6l0,0l0,0c0.1,0.3,0.2,0.7,0.2,1.2l0,0v5.2H3.9L3.5-5.9l0,0C3.1-5.7,2.8-5.4,2.4-5.3l0,0l0,0
		C2-5.2,1.5-5.1,1-5.1l0,0l0,0c-0.8,0-1.3-0.2-1.6-0.5l0,0l0,0C-1-5.9-1.2-6.5-1.2-7.2l0,0l0,0c0-0.7,0.1-1.2,0.3-1.5l0,0l0,0
		C-0.7-9-0.3-9.2,0.2-9.3l0,0l0,0c0.6-0.1,1.5-0.1,2.7-0.1l0,0h0.2v-1.7l0,0c-0.3-0.1-0.8-0.2-1.4-0.2l0,0l0,0
		c-0.7,0-1.5,0.1-2.4,0.4l0,0l-0.2-1l0,0c0.3-0.1,0.8-0.2,1.3-0.3l0,0l0,0C1-12.3,1.4-12.4,1.9-12.4L1.9-12.4z M2-6.2L2-6.2
		c0.4,0,0.7-0.1,0.9-0.2l0,0l0,0C3.1-6.5,3.1-6.7,3.1-7l0,0v-1.5H1.2l0,0c-0.4,0-0.7,0-0.9,0.1l0,0l0,0C0.2-8.2,0.1-8,0.1-7.7l0,0
		v1.5H2z M10.3-12.5L10.3-12.5c0.7,0,1.2,0.1,1.6,0.3l0,0l0,0c0.4,0.2,0.6,0.6,0.8,1.1l0,0l0,0c0.1,0.6,0.1,1.3,0.1,2.4l0,0l0,0
		c0,1-0.1,1.8-0.2,2.3l0,0l0,0c-0.2,0.5-0.4,0.9-0.8,1.1l0,0l0,0C11.4-5.1,10.8-5,10-5l0,0l0,0l0,0C9.4-5,8.9-5,8.5-5.1l0,0l0,0
		C8-5.2,7.5-5.3,7-5.4l0,0v-9l1.4-0.2v2.6l0,0c0.2-0.1,0.5-0.2,0.8-0.3l0,0l0,0C9.5-12.4,9.8-12.5,10.3-12.5L10.3-12.5z M11.4-6.5
		v-4.8H9l0,0c-0.2,0-0.4,0-0.5,0.1l0,0l0,0c-0.1,0-0.1,0.1-0.1,0.3l0,0v4.7h2.4l0,0c0.2,0,0.4,0,0.5-0.1l0,0l0,0
		C11.3-6.4,11.4-6.4,11.4-6.5L11.4-6.5z M14.4-10.4L14.4-10.4c0-0.7,0.2-1.2,0.6-1.6l0,0l0,0c0.4-0.3,1.1-0.5,2-0.5l0,0l0,0
		c0.8,0,1.6,0.1,2.3,0.3l0,0l-0.2,1l0,0c-0.2-0.1-0.5-0.1-0.8-0.2l0,0l0,0c-0.3,0-0.6-0.1-0.9-0.1l0,0l0,0c-0.6,0-1.1,0-1.6,0.1l0,0
		v1.7l0,0c1.1,0.2,1.9,0.3,2.5,0.5l0,0l0,0c0.5,0.2,0.9,0.4,1.1,0.6l0,0l0,0c0.3,0.4,0.4,0.8,0.4,1.4l0,0l0,0c0,0.5-0.1,1-0.3,1.3
		l0,0l0,0c-0.2,0.3-0.5,0.5-0.9,0.7l0,0l0,0c-0.4,0.1-1,0.2-1.7,0.2l0,0l0,0c-0.8,0-1.6-0.1-2.5-0.4l0,0l0.2-1.1l0,0
		c0.7,0.3,1.5,0.4,2.3,0.4l0,0l0,0c0.3,0,0.5,0,0.7,0l0,0l0,0c0.2,0,0.5-0.1,0.7-0.1l0,0v-1.7l0,0c-1.2-0.2-2.1-0.3-2.6-0.5l0,0l0,0
		c-0.5-0.2-0.9-0.4-1-0.6l0,0l0,0C14.5-9.4,14.4-9.8,14.4-10.4L14.4-10.4z"/>
</g>
<path class="st1" d="M47.5,64.9c-0.1-0.1-0.1-0.3-0.2-0.4L41.4,52l-8.6-18.6v-21c1.8-1.3,2.9-3.2,2.9-5.3C35.7,3.2,31.8,0,27,0h-5.8
	c-4.8,0-8.7,3.2-8.7,7.1c0,2.1,1.1,4,2.9,5.3v21L9.8,45.3h11.4v5.6h-14l-2.6,5.6h19.6v5.6H1.9l-1,2.1c-1.1,2.2-1.2,4.5,0,6.3
	c1.1,1.8,3.2,2.8,5.8,2.8h34.8c2.6,0,4.7-1,5.8-2.8C48.4,69,48.4,66.9,47.5,64.9z M18.3,7.2c0-0.5,1.1-1.4,2.9-1.4H27
	c1.8,0,2.9,0.9,2.9,1.4S28.8,8.6,27,8.6h-5.8C19.4,8.6,18.3,7.7,18.3,7.2z M29.3,41.7c-1.1,0.2-2.1-0.7-3.9-2.3
	c-0.5-0.5-1-0.9-1.6-1.5c-1.2-1.1-2.3-1.5-3-1.1c-0.8,0.4-1,1.4-1,1.4l-0.1-0.1l1.6-3.5V14.2H27v20.4l3.1,6.7
	C29.8,41.5,29.6,41.6,29.3,41.7z"/>
<path class="st2" d="M64.7,11.4H47.3c-4.8,0-8.7,3.2-8.7,7.1c0,2.1,1.1,4,2.9,5.3v10.3h11.6v5.6H41.5v5.6H56v5.6H43.9l0.5,1
	l5.9,12.5c0.1,0.1,0.1,0.3,0.2,0.4c0,0.1,0,0.1,0.1,0.2h12.5c4.1,0,7.5-3.5,7.5-7.8V23.7c1.8-1.3,2.9-3.2,2.9-5.3
	C73.4,14.6,69.5,11.4,64.7,11.4z M64.7,31.4c-1.2,0.3-2.1,0.4-3,0.4c-2.1,0-3.7-0.7-6.4-2c-0.8-0.4-1.7-0.8-2.5-1.2
	c-1.9-0.9-3.6-1.2-5.1-1.1c-0.1,0-0.2,0-0.3,0.1v-2h17.4L64.7,31.4L64.7,31.4z M64.7,19.9H47.3c-1.8,0-2.9-0.9-2.9-1.4
	s1.1-1.4,2.9-1.4h17.4c1.8,0,2.9,0.9,2.9,1.4S66.5,19.9,64.7,19.9z"/>
<g id="_x32_e1de80f-4bbb-468d-ab88-569eba328d60" transform="matrix(0.8758264921852471,0,0,0.8758264921852471,35.74280949931327,105.95198369721103)">
	<path class="st3" d="M319.2-85.9H271c-0.2,0-0.3,0.3-0.3,0.4c-0.3,3.8-5.6,3.7-7,3.6c-0.2,0-0.1,0.2-0.1,0.4v12.9
		c20,0,0.8,16.5-8.1,20.8c-0.4,0.2-0.5,0.9,0,0.9h20.8c0.1,0,0.1,0,0.1-0.1c0.1-1.1,1.4-9.1,7.8-9.1s8,8,8.1,9.1
		c0,0.1,0.1,0.1,0.1,0.1h18.3c0.5,0,0.6-0.6,0.2-0.8c-4.3-2.6-16.5-10.3-14.6-19c2-9.2,14.3-11.7,17.4-12.2c0.4-0.1,0.9-0.4,0.9-0.9
		v-2.1h3.9c0.6,0,1.1-0.4,1.1-1v-2.4C319.6-85.5,319.4-85.9,319.2-85.9z"/>
	<path class="st3" d="M260.6-78.9h-30.9c-0.2,0-0.3,0.2-0.2,0.4c1.7,2,8.5,9.9,31.1,9.9V-78.9z"/>
	<g>
		<path class="st3" d="M296.1-88.6c-0.2,0-0.5-0.1-0.7-0.3c-0.4-0.4-0.3-1,0-1.3l9.8-9.2c0.4-0.4,1-0.3,1.3,0c0.4,0.4,0.3,1,0,1.3
			l-9.8,9.2C296.5-88.7,296.3-88.6,296.1-88.6z M304.9-89.1c-0.4,0-0.7-0.2-0.9-0.6c-0.2-0.5,0.1-1,0.5-1.2l5.9-2.2
			c0.5-0.2,1,0.1,1.2,0.5c0.2,0.5-0.1,1-0.5,1.2l-5.9,2.3C305.2-89.1,304.9-89.1,304.9-89.1z M283.2-91.5c-0.3,0-0.5-0.1-0.7-0.3
			l-9.4-11c-0.3-0.4-0.3-1,0.1-1.3c0.4-0.3,1-0.3,1.3,0.1l9.4,11c0.3,0.4,0.3,1-0.1,1.3C283.7-91.6,283.4-91.5,283.2-91.5z
			 M290.5-93.2h-0.3c-0.5-0.2-0.7-0.7-0.6-1.2l2-5.9c0.2-0.5,0.7-0.7,1.2-0.6c0.5,0.2,0.7,0.7,0.6,1.2l-2,5.9
			C291.3-93.4,290.9-93.2,290.5-93.2z M276.2-89.2c-0.1,0-0.3,0-0.4-0.1l-5.5-2.9c-0.5-0.2-0.6-0.8-0.4-1.3s0.8-0.6,1.3-0.4l5.4,3
			c0.5,0.2,0.6,0.8,0.4,1.3C276.8-89.4,276.5-89.2,276.2-89.2z M286.3-97c-0.4,0-0.8-0.3-0.9-0.7l-1.5-5.1c-0.1-0.5,0.1-1,0.6-1.2
			c0.5-0.1,1,0.1,1.2,0.6l1.5,5.1c0.1,0.5-0.1,1-0.6,1.2C286.5-97,286.4-97,286.3-97z"/>
	</g>
</g>
<circle class="st0" cx="234" cy="59.6" r="3.9"/>
</svg>
