<svg data-v-d3f97b9e="" xmlns="http://www.w3.org/2000/svg" viewBox="0 0 274 90"><!----><!----><!----><g data-v-d3f97b9e="" id="c47cc6dd-6b75-4491-b41a-c355802bba35" fill="white" transform="matrix(6.19195073253312,0,0,6.19195073253312,102.19991072585833,-32.67801802897267)"><path d="M1.26 17.18L1.26 8.43L2.66 8.43L2.66 16.02L5.88 16.02L5.88 17.18L1.26 17.18ZM9.88 10.04L9.88 10.04Q10.85 10.04 11.41 10.23L11.41 10.23L11.41 10.23Q11.97 10.42 12.21 10.84L12.21 10.84L12.21 10.84Q12.46 11.27 12.46 12.00L12.46 12.00L12.46 17.18L11.82 17.18L11.44 16.48L11.44 16.48Q10.93 16.91 10.32 17.12L10.32 17.12L10.32 17.12Q9.72 17.32 8.93 17.32L8.93 17.32L8.93 17.32Q7.77 17.32 7.28 16.84L7.28 16.84L7.28 16.84Q6.79 16.35 6.79 15.22L6.79 15.22L6.79 15.22Q6.79 14.20 7.07 13.75L7.07 13.75L7.07 13.75Q7.35 13.30 8.17 13.15L8.17 13.15L8.17 13.15Q8.99 12.99 10.85 12.99L10.85 12.99L11.06 12.99L11.06 11.30L11.06 11.30Q10.54 11.14 9.65 11.14L9.65 11.14L9.65 11.14Q8.53 11.14 7.28 11.48L7.28 11.48L7.10 10.46L7.10 10.46Q7.62 10.28 8.39 10.16L8.39 10.16L8.39 10.16Q9.16 10.04 9.88 10.04L9.88 10.04ZM9.94 16.24L9.94 16.24Q10.60 16.24 10.83 16.07L10.83 16.07L10.83 16.07Q11.06 15.90 11.06 15.43L11.06 15.43L11.06 13.90L9.20 13.90L9.20 13.90Q8.54 13.90 8.30 14.07L8.30 14.07L8.30 14.07Q8.06 14.24 8.06 14.71L8.06 14.71L8.06 16.24L9.94 16.24ZM18.26 9.97L18.26 9.97Q19.29 9.97 19.82 10.28L19.82 10.28L19.82 10.28Q20.36 10.58 20.57 11.37L20.57 11.37L20.57 11.37Q20.78 12.15 20.78 13.68L20.78 13.68L20.78 13.68Q20.78 15.19 20.55 15.95L20.55 15.95L20.55 15.95Q20.31 16.72 19.73 17.02L19.73 17.02L19.73 17.02Q19.14 17.32 17.98 17.32L17.98 17.32L17.96 17.32L17.96 17.32Q17.12 17.32 16.42 17.22L16.42 17.22L16.42 17.22Q15.72 17.12 14.91 16.88L14.91 16.88L14.91 7.87L16.31 7.70L16.31 10.30L16.31 10.30Q16.63 10.12 17.09 10.05L17.09 10.05L17.09 10.05Q17.56 9.97 18.26 9.97L18.26 9.97ZM19.31 15.89L19.31 11.12L16.95 11.12L16.95 11.12Q16.58 11.12 16.44 11.19L16.44 11.19L16.44 11.19Q16.31 11.26 16.31 11.47L16.31 11.47L16.31 16.17L18.66 16.17L18.66 16.17Q19.03 16.17 19.17 16.11L19.17 16.11L19.17 16.11Q19.31 16.04 19.31 15.89L19.31 15.89ZM22.40 12.05L22.40 12.05Q22.40 10.98 23.04 10.47L23.04 10.47L23.04 10.47Q23.67 9.97 25.05 9.97L25.05 9.97L25.05 9.97Q26.26 9.97 27.37 10.28L27.37 10.28L27.17 11.30L27.17 11.30Q26.82 11.20 26.35 11.14L26.35 11.14L26.35 11.14Q25.87 11.07 25.47 11.07L25.47 11.07L25.47 11.07Q24.63 11.07 23.87 11.20L23.87 11.20L23.87 12.85L23.87 12.85Q25.55 13.09 26.34 13.34L26.34 13.34L26.34 13.34Q27.13 13.58 27.43 13.99L27.43 13.99L27.43 13.99Q27.72 14.41 27.72 15.20L27.72 15.20L27.72 15.20Q27.72 16.00 27.43 16.48L27.43 16.48L27.43 16.48Q27.15 16.95 26.50 17.17L26.50 17.17L26.50 17.17Q25.86 17.39 24.78 17.39L24.78 17.39L24.78 17.39Q23.58 17.39 22.25 16.98L22.25 16.98L22.47 15.86L22.47 15.86Q23.55 16.28 24.77 16.28L24.77 16.28L24.77 16.28Q25.19 16.28 25.51 16.24L25.51 16.24L25.51 16.24Q25.83 16.20 26.25 16.09L26.25 16.09L26.25 14.43L26.25 14.43Q24.44 14.18 23.67 13.94L23.67 13.94L23.67 13.94Q22.90 13.71 22.65 13.31L22.65 13.31L22.65 13.31Q22.40 12.91 22.40 12.05L22.40 12.05Z"></path></g><!----><g data-v-d3f97b9e="" id="e8b21b23-5638-4d2a-a45a-3c49c4378e0f" transform="matrix(3.4615384615384617,0,0,3.4615384615384617,-9.384240663968605,-10.384615384615387)" stroke="none" fill="white"><path d="M19.77 25.8l-2.076-4.43-3.083-6.59V7.36c.627-.46 1.028-1.12 1.028-1.86 0-1.38-1.388-2.5-3.083-2.5H10.5C8.803 3 7.416 4.12 7.416 5.5c0 .74.401 1.4 1.028 1.86v7.42L6.47 19h4.029v2H5.535L4.6 23h6.927v2H3.664l-.36.76c-.401.79-.411 1.61 0 2.24.401.64 1.151 1 2.056 1h12.334c.904 0 1.655-.36 2.056-1 .38-.59.401-1.35.082-2.06-.021-.05-.041-.09-.062-.14zM10.499 5h2.056c.627 0 1.028.33 1.028.5 0 .17-.401.5-1.028.5h-2.056c-.627 0-1.028-.33-1.028-.5 0-.17.401-.5 1.028-.5zm2.868 12.72c-.401.06-.761-.24-1.388-.81-.164-.16-.36-.33-.576-.52-.442-.39-.802-.52-1.059-.4-.277.13-.37.51-.37.51l-.051-.04.576-1.24V8h2.056v7.22l1.11 2.37a.967.967 0 0 1-.298.13zM25.917 7H19.75c-1.696 0-3.083 1.12-3.083 2.5 0 .74.401 1.4 1.028 1.86V15h4.112v2H17.694v2h5.139v2H18.549l.173.37 2.076 4.43c.021.05.041.09.062.14.009.02.011.04.02.06h4.42c1.47 0 2.672-1.23 2.672-2.75V11.36C28.599 10.9 29 10.24 29 9.5 29 8.12 27.612 7 25.917 7zM19.75 9h6.167c.627 0 1.028.33 1.028.5 0 .17-.401.5-1.028.5H19.75c-.627 0-1.028-.33-1.028-.5 0-.17.401-.5 1.028-.5zm6.167 5.082c-.41.089-.759.137-1.069.137-.752 0-1.326-.252-2.279-.709a43.919 43.919 0 0 0-.888-.419c-.682-.312-1.292-.442-1.809-.39-.046.005-.079.017-.122.024V12h6.167v2.082z"></path></g><!----></svg>