<svg data-v-d3f97b9e="" xmlns="http://www.w3.org/2000/svg" viewBox="0 0 60.00117962176983 60"><!----><!----><!----><!----><g data-v-d3f97b9e="" id="2ad78c5e-5d91-4de8-a27b-6c518c249045" transform="matrix(2.3076923076923075,0,0,2.3076923076923075,-6.921896164233864,-6.92307692307692)" stroke="none" fill="black"><path d="M19.77 25.8l-2.076-4.43-3.083-6.59V7.36c.627-.46 1.028-1.12 1.028-1.86 0-1.38-1.388-2.5-3.083-2.5H10.5C8.803 3 7.416 4.12 7.416 5.5c0 .74.401 1.4 1.028 1.86v7.42L6.47 19h4.029v2H5.535L4.6 23h6.927v2H3.664l-.36.76c-.401.79-.411 1.61 0 2.24.401.64 1.151 1 2.056 1h12.334c.904 0 1.655-.36 2.056-1 .38-.59.401-1.35.082-2.06-.021-.05-.041-.09-.062-.14zM10.499 5h2.056c.627 0 1.028.33 1.028.5 0 .17-.401.5-1.028.5h-2.056c-.627 0-1.028-.33-1.028-.5 0-.17.401-.5 1.028-.5zm2.868 12.72c-.401.06-.761-.24-1.388-.81-.164-.16-.36-.33-.576-.52-.442-.39-.802-.52-1.059-.4-.277.13-.37.51-.37.51l-.051-.04.576-1.24V8h2.056v7.22l1.11 2.37a.967.967 0 0 1-.298.13zM25.917 7H19.75c-1.696 0-3.083 1.12-3.083 2.5 0 .74.401 1.4 1.028 1.86V15h4.112v2H17.694v2h5.139v2H18.549l.173.37 2.076 4.43c.021.05.041.09.062.14.009.02.011.04.02.06h4.42c1.47 0 2.672-1.23 2.672-2.75V11.36C28.599 10.9 29 10.24 29 9.5 29 8.12 27.612 7 25.917 7zM19.75 9h6.167c.627 0 1.028.33 1.028.5 0 .17-.401.5-1.028.5H19.75c-.627 0-1.028-.33-1.028-.5 0-.17.401-.5 1.028-.5zm6.167 5.082c-.41.089-.759.137-1.069.137-.752 0-1.326-.252-2.279-.709a43.919 43.919 0 0 0-.888-.419c-.682-.312-1.292-.442-1.809-.39-.046.005-.079.017-.122.024V12h6.167v2.082z"></path></g><!----></svg>